<svg width="358" height="714" viewBox="0 0 358 714" fill="none" xmlns="http://www.w3.org/2000/svg">
<path d="M0.00013497 108.183C137.141 108.183 248.317 219.359 248.317 356.5C248.317 493.641 137.141 604.817 9.15527e-05 604.817" fill="#DBEAFE"/>
<path d="M276.854 356.5C276.854 509.397 152.897 633.354 8.55263e-05 633.354" stroke="#334155" stroke-width="4" stroke-miterlimit="10"/>
<path d="M0.00010973 79.6457C152.897 79.6457 276.854 203.603 276.854 356.5" stroke="#334155" stroke-miterlimit="10"/>
<path d="M276.854 356.5C276.854 509.397 152.897 633.354 8.55263e-05 633.354" stroke="#334155" stroke-width="4" stroke-miterlimit="10"/>
<path d="M0.00010973 79.6457C152.897 79.6457 276.854 203.603 276.854 356.5" stroke="#334155" stroke-miterlimit="10"/>
<path d="M302.418 356.5C302.418 523.518 167.018 658.917 0.000104254 658.917" stroke="#334155" stroke-width="4" stroke-miterlimit="10"/>
<path d="M0.000130692 54.0826C167.018 54.0826 302.418 189.482 302.418 356.5" stroke="#334155" stroke-miterlimit="10"/>
<path d="M302.418 356.5C302.418 523.518 167.018 658.917 0.000104254 658.917" stroke="#334155" stroke-width="4" stroke-miterlimit="10"/>
<path d="M0.000130692 54.0826C167.018 54.0826 302.418 189.482 302.418 356.5" stroke="#334155" stroke-miterlimit="10"/>
<path d="M327.874 356.5C327.874 537.586 181.086 684.374 0.000113228 684.374" stroke="#334155" stroke-width="4" stroke-miterlimit="10"/>
<path d="M0.000141892 28.6265C181.086 28.6265 327.874 175.414 327.874 356.5" stroke="#334155" stroke-miterlimit="10"/>
<path d="M355.5 356.5C355.5 552.833 196.333 712 0.000136889 712" stroke="#334155" stroke-width="4" stroke-miterlimit="10"/>
<path d="M0.000167967 0.999962C196.333 0.999979 355.5 160.167 355.5 356.5" stroke="#334155" stroke-miterlimit="10"/>
</svg>
