<svg width="221" height="48" viewBox="0 0 221 48" fill="none" xmlns="http://www.w3.org/2000/svg">
<path d="M18.058 5.07999C18.6521 4.75006 19.3204 4.57693 20 4.57693C20.6796 4.57693 21.3479 4.75006 21.942 5.07999L36.972 13.428C37.2836 13.6013 37.5432 13.8547 37.724 14.162C37.9047 14.4694 38 14.8194 38 15.176V31.646C37.9998 32.3593 37.8089 33.0596 37.4471 33.6742C37.0852 34.2889 36.5656 34.7957 35.942 35.142L21.942 42.922C21.3479 43.2519 20.6796 43.425 20 43.425C19.3204 43.425 18.6521 43.2519 18.058 42.922L4.058 35.142C3.43471 34.7958 2.91526 34.2894 2.55343 33.6751C2.19159 33.0608 2.00053 32.3609 2 31.648V15.176C1.99999 14.8194 2.09528 14.4694 2.27603 14.162C2.45678 13.8547 2.71639 13.6013 3.028 13.428L18.06 5.07999H18.058Z" stroke="#1E293B" stroke-width="3" stroke-linecap="round" stroke-linejoin="round"/>
<path d="M2 14L20 24M20 24L38 14M20 24V43" stroke="#1E293B" stroke-width="3" stroke-linejoin="round"/>
<path d="M11 19L29 9M8 24.656L14 28" stroke="#1E293B" stroke-width="3" stroke-linecap="round" stroke-linejoin="round"/>
<path d="M62.3097 18.2756C62.196 17.1297 61.7083 16.2396 60.8466 15.6051C59.9848 14.9706 58.8153 14.6534 57.3381 14.6534C56.3343 14.6534 55.4867 14.7955 54.7955 15.0795C54.1042 15.3542 53.5739 15.7377 53.2045 16.2301C52.8447 16.7225 52.6648 17.2812 52.6648 17.9062C52.6458 18.4271 52.7547 18.8816 52.9915 19.2699C53.2377 19.6581 53.5739 19.9943 54 20.2784C54.4261 20.553 54.9186 20.7945 55.4773 21.0028C56.036 21.2017 56.6326 21.3722 57.267 21.5142L59.8807 22.1392C61.1496 22.4233 62.3144 22.8021 63.375 23.2756C64.4356 23.7491 65.3542 24.3314 66.1307 25.0227C66.9072 25.714 67.5085 26.5284 67.9347 27.4659C68.3703 28.4034 68.5928 29.4782 68.6023 30.6903C68.5928 32.4706 68.1383 34.0142 67.2386 35.321C66.3485 36.6184 65.0606 37.6269 63.375 38.3466C61.6989 39.0568 59.6771 39.4119 57.3097 39.4119C54.9612 39.4119 52.9157 39.0521 51.1733 38.3324C49.4403 37.6127 48.0862 36.5473 47.1108 35.1364C46.1449 33.7159 45.6383 31.9593 45.5909 29.8665H51.5426C51.6089 30.8419 51.8883 31.6562 52.3807 32.3097C52.8826 32.9536 53.5502 33.4413 54.3835 33.7727C55.2263 34.0947 56.178 34.2557 57.2386 34.2557C58.2803 34.2557 59.1847 34.1042 59.9517 33.8011C60.7282 33.4981 61.3295 33.0767 61.7557 32.5369C62.1818 31.9972 62.3949 31.3769 62.3949 30.6761C62.3949 30.0227 62.2008 29.4735 61.8125 29.0284C61.4337 28.5833 60.875 28.2045 60.1364 27.892C59.4072 27.5795 58.5123 27.2955 57.4517 27.0398L54.2841 26.2443C51.8314 25.6477 49.8949 24.715 48.4744 23.446C47.054 22.1771 46.3485 20.4678 46.358 18.3182C46.3485 16.5568 46.8172 15.018 47.7642 13.7017C48.7206 12.3854 50.0322 11.358 51.6989 10.6193C53.3655 9.88068 55.2595 9.51136 57.3807 9.51136C59.5398 9.51136 61.4242 9.88068 63.0341 10.6193C64.6534 11.358 65.9129 12.3854 66.8125 13.7017C67.7121 15.018 68.1761 16.5426 68.2045 18.2756H62.3097ZM78.1087 32.7216L78.1229 25.4631H79.0036L85.9922 17.1818H92.9382L83.549 28.1477H82.1143L78.1087 32.7216ZM72.6257 39V9.90909H78.6768V39H72.6257ZM86.2621 39L79.8416 29.4972L83.8757 25.2216L93.3501 39H86.2621ZM101.958 9.90909V39H95.907V9.90909H101.958ZM113.027 39.4119C111.635 39.4119 110.394 39.1705 109.305 38.6875C108.216 38.1951 107.355 37.4706 106.72 36.5142C106.095 35.5483 105.783 34.3456 105.783 32.9062C105.783 31.6941 106.005 30.6761 106.45 29.8523C106.895 29.0284 107.501 28.3655 108.268 27.8636C109.036 27.3617 109.907 26.983 110.882 26.7273C111.867 26.4716 112.899 26.2917 113.979 26.1875C115.248 26.0549 116.27 25.9318 117.047 25.8182C117.823 25.6951 118.387 25.5152 118.737 25.2784C119.088 25.0417 119.263 24.6913 119.263 24.2273V24.142C119.263 23.2424 118.979 22.5464 118.411 22.054C117.852 21.5616 117.056 21.3153 116.024 21.3153C114.935 21.3153 114.069 21.5568 113.425 22.0398C112.781 22.5133 112.355 23.1098 112.146 23.8295L106.55 23.375C106.834 22.0492 107.393 20.9034 108.226 19.9375C109.059 18.9621 110.134 18.214 111.45 17.6932C112.776 17.1629 114.31 16.8977 116.053 16.8977C117.265 16.8977 118.425 17.0398 119.533 17.3239C120.65 17.608 121.64 18.0483 122.501 18.6449C123.373 19.2415 124.059 20.0085 124.561 20.946C125.063 21.8741 125.314 22.9867 125.314 24.2841V39H119.575V35.9744H119.405C119.054 36.6562 118.586 37.2576 117.999 37.7784C117.411 38.2898 116.706 38.6922 115.882 38.9858C115.058 39.2699 114.107 39.4119 113.027 39.4119ZM114.76 35.2358C115.65 35.2358 116.436 35.0606 117.118 34.7102C117.8 34.3504 118.335 33.8674 118.723 33.2614C119.111 32.6553 119.305 31.9687 119.305 31.2017V28.8864C119.116 29.0095 118.856 29.1231 118.524 29.2273C118.202 29.322 117.838 29.4119 117.43 29.4972C117.023 29.5729 116.616 29.6439 116.209 29.7102C115.802 29.767 115.432 29.8191 115.101 29.8665C114.391 29.9706 113.77 30.1364 113.24 30.3636C112.71 30.5909 112.298 30.8987 112.004 31.2869C111.711 31.6657 111.564 32.1392 111.564 32.7074C111.564 33.5312 111.862 34.161 112.459 34.5966C113.065 35.0227 113.832 35.2358 114.76 35.2358ZM138.048 39.3551C136.391 39.3551 134.89 38.929 133.545 38.0767C132.21 37.215 131.15 35.9508 130.364 34.2841C129.587 32.608 129.199 30.553 129.199 28.1193C129.199 25.6193 129.601 23.5407 130.406 21.8835C131.211 20.2169 132.281 18.9716 133.616 18.1477C134.961 17.3144 136.434 16.8977 138.034 16.8977C139.256 16.8977 140.274 17.1061 141.088 17.5227C141.912 17.9299 142.575 18.4413 143.077 19.0568C143.588 19.6629 143.976 20.2595 144.241 20.8466H144.426V9.90909H150.463V39H144.497V35.5057H144.241C143.957 36.1117 143.555 36.7131 143.034 37.3097C142.523 37.8968 141.855 38.3845 141.031 38.7727C140.217 39.161 139.223 39.3551 138.048 39.3551ZM139.966 34.5398C140.941 34.5398 141.765 34.2746 142.438 33.7443C143.119 33.2045 143.64 32.4517 144 31.4858C144.369 30.5199 144.554 29.3883 144.554 28.0909C144.554 26.7936 144.374 25.6667 144.014 24.7102C143.654 23.7538 143.134 23.0152 142.452 22.4943C141.77 21.9735 140.941 21.7131 139.966 21.7131C138.972 21.7131 138.134 21.983 137.452 22.5227C136.77 23.0625 136.254 23.8106 135.903 24.767C135.553 25.7235 135.378 26.8314 135.378 28.0909C135.378 29.3598 135.553 30.482 135.903 31.4574C136.263 32.4233 136.779 33.1809 137.452 33.7301C138.134 34.2699 138.972 34.5398 139.966 34.5398ZM161.489 26.3864V39H155.438V17.1818H161.205V21.0312H161.461C161.944 19.7623 162.754 18.7585 163.89 18.0199C165.026 17.2718 166.404 16.8977 168.023 16.8977C169.539 16.8977 170.86 17.2292 171.987 17.892C173.113 18.5549 173.989 19.5019 174.614 20.733C175.239 21.9545 175.552 23.4129 175.552 25.108V39H169.501V26.1875C169.51 24.8523 169.169 23.8106 168.478 23.0625C167.787 22.3049 166.835 21.9261 165.623 21.9261C164.808 21.9261 164.089 22.1013 163.464 22.4517C162.848 22.8021 162.365 23.3134 162.015 23.9858C161.674 24.6487 161.499 25.4489 161.489 26.3864ZM180.321 39V17.1818H186.372V39H180.321ZM183.361 14.3693C182.461 14.3693 181.689 14.071 181.045 13.4744C180.411 12.8684 180.094 12.1439 180.094 11.3011C180.094 10.4678 180.411 9.75284 181.045 9.15625C181.689 8.55019 182.461 8.24716 183.361 8.24716C184.26 8.24716 185.027 8.55019 185.662 9.15625C186.306 9.75284 186.628 10.4678 186.628 11.3011C186.628 12.1439 186.306 12.8684 185.662 13.4744C185.027 14.071 184.26 14.3693 183.361 14.3693ZM202.313 28.8864H207.54L210.168 32.267L212.754 35.2784L217.626 41.3864H211.887L208.535 37.267L206.816 34.8239L202.313 28.8864ZM218.066 24.4545C218.066 27.6269 217.465 30.3258 216.262 32.5511C215.069 34.7765 213.44 36.4763 211.376 37.6506C209.321 38.8153 207.01 39.3977 204.444 39.3977C201.859 39.3977 199.539 38.8106 197.484 37.6364C195.429 36.4621 193.805 34.7623 192.612 32.5369C191.418 30.3116 190.822 27.6174 190.822 24.4545C190.822 21.2822 191.418 18.5833 192.612 16.358C193.805 14.1326 195.429 12.4375 197.484 11.2727C199.539 10.0985 201.859 9.51136 204.444 9.51136C207.01 9.51136 209.321 10.0985 211.376 11.2727C213.44 12.4375 215.069 14.1326 216.262 16.358C217.465 18.5833 218.066 21.2822 218.066 24.4545ZM211.83 24.4545C211.83 22.3996 211.522 20.6667 210.907 19.2557C210.301 17.8447 209.444 16.7746 208.336 16.0455C207.228 15.3163 205.931 14.9517 204.444 14.9517C202.957 14.9517 201.66 15.3163 200.552 16.0455C199.444 16.7746 198.582 17.8447 197.967 19.2557C197.361 20.6667 197.058 22.3996 197.058 24.4545C197.058 26.5095 197.361 28.2424 197.967 29.6534C198.582 31.0644 199.444 32.1345 200.552 32.8636C201.66 33.5928 202.957 33.9574 204.444 33.9574C205.931 33.9574 207.228 33.5928 208.336 32.8636C209.444 32.1345 210.301 31.0644 210.907 29.6534C211.522 28.2424 211.83 26.5095 211.83 24.4545Z" fill="#1E293B"/>
</svg>
